<svg id="レイヤー_1" data-name="レイヤー 1" xmlns="http://www.w3.org/2000/svg" viewBox="0 0 12 16"><defs><style>.cls-1{fill:#fff;}</style></defs><path d="M13.82,1.56a.45.45,0,0,0-.39-.07L4.89,3.4A2,2,0,0,1,3.14,3,.64.64,0,0,1,3,2.11a.79.79,0,0,1,.46-.3L11.2.09a.42.42,0,0,0,.34-.5A.46.46,0,0,0,11-.71L3.28,1a1.72,1.72,0,0,0-1,.65A1.43,1.43,0,0,0,2,2.55v11.1a1.43,1.43,0,0,0,.49.9,2.92,2.92,0,0,0,2,.72,2.9,2.9,0,0,0,.66-.07l8.54-1.92a.41.41,0,0,0,.35-.4v-11A.41.41,0,0,0,13.82,1.56Z" transform="translate(-2 0.73)"/><path class="cls-1" d="M6.59,10.39c0,.51,0,.79-.26,1a.7.7,0,0,1-.44.13c-.7,0-.69-.6-.69-1v-6H4.09v6.07a2.17,2.17,0,0,0,.14.91,1.68,1.68,0,0,0,1.62.91A1.7,1.7,0,0,0,7.6,11.25a3.61,3.61,0,0,0,.11-.92V4.44H6.59Z" transform="translate(-2 0.73)"/><path class="cls-1" d="M10.25,8.07V9H11v1.76a.65.65,0,0,1-.25.62.69.69,0,0,1-.33.07.48.48,0,0,1-.48-.24,1.71,1.71,0,0,1-.08-.69V6.07c0-.25,0-.6.23-.77a.6.6,0,0,1,.34-.09c.52,0,.51.42.52.54s0,.17,0,.25v.88H12V6.06c0-.66,0-.91-.28-1.2a1.56,1.56,0,0,0-1.26-.5,1.51,1.51,0,0,0-1.59.95,3.19,3.19,0,0,0-.15,1.24v3.89a1.81,1.81,0,0,0,.58,1.61,1.57,1.57,0,0,0,1,.28,1.21,1.21,0,0,0,1.07-.48l.11.36h.69V8.07Z" transform="translate(-2 0.73)"/></svg>